<?xml version="1.0" encoding="UTF-8"?>
<svg id="Layer_1" xmlns="http://www.w3.org/2000/svg" version="1.1" viewBox="0 0 336 280">
  <!-- Generator: Adobe Illustrator 30.0.0, SVG Export Plug-In . SVG Version: 2.1.1 Build 123)  -->
  <defs>
    <style>
      .st0, .st1, .st2, .st3, .st4, .st5, .st6, .st7, .st8, .st9, .st10 {
        stroke: #000;
        stroke-linecap: round;
        stroke-linejoin: round;
      }

      .st0, .st1, .st3, .st6, .st7, .st8 {
        stroke-width: 1.61px;
      }

      .st0, .st4 {
        fill: #ff7bac;
      }

      .st1, .st2, .st10 {
        fill: none;
      }

      .st2 {
        stroke-width: 2.19px;
      }

      .st3 {
        fill: #ffff7c;
      }

      .st4 {
        stroke-width: 1.59px;
      }

      .st5 {
        stroke-width: 1.51px;
      }

      .st5, .st8 {
        fill: #8ec9e2;
      }

      .st6 {
        fill: #7dc761;
      }

      .st7, .st9 {
        fill: #fbb03b;
      }

      .st9 {
        stroke-width: 1.6px;
      }

      .st10 {
        stroke-width: 1.66px;
      }
    </style>
  </defs>
  <g>
    <text/>
    <polygon class="st1" points="95.28 190.23 165.4 190.23 165.4 162.26 138.72 162.26 138.93 149.37 122.75 149.37 122.75 138.14 157.54 138.14 157.75 127.53 171.82 127.53 171.82 88.85 108.52 88.85 108.31 100.5 95.28 100.91 95.28 190.23"/>
    <polyline class="st1" points="128.8 108 128.8 120.29 147.7 120.29 147.7 108 129.81 108"/>
    <path class="st1" d="M171.82,100.29"/>
    <path class="st1" d="M159.55,88.85"/>
    <path class="st1" d="M108.18,88.85"/>
    <path class="st1" d="M201.27,153.21l-.23-.36.68,37.8h-17.16v-101.37c-2.37-.24,69.22-19.64,64.62,17.11-.13,1.05-.48,2.05-.7,3.08-1.83,8.31-11.55,21.14-28.16,35.17-8.33,7.04,5.08,31.61,10.75,33.69,5.81,2.13,41.79-39.16,41.79-39.16.53-1.02-30.34,53.6-43.94,50.96-15.92-3.09-27.88-37.28-27.88-37.28"/>
    <line class="st1" x1="171.85" y1="103.28" x2="171.85" y2="120.12"/>
    <path class="st1" d="M188.38,107.44"/>
    <path class="st4" d="M252.59,170.32c.31-.32-19.86,30.18-34.54,18.51-18.87-15-16.93-36.06-16.78-35.61,0,0,20.48,67.8,51.32,17.1Z"/>
    <path class="st9" d="M224.78,171.69c3.53,4.41,41.7-36.97,41.7-36.97l6.47,3.84s-37.89,43.26-41.88,39.76-6.72-7.17-6.29-6.63Z"/>
    <path class="st1" d="M171.85,93.09"/>
    <path class="st1" d="M257.79,96.84"/>
    <path class="st10" d="M259.86,105.96"/>
    <path class="st2" d="M171.82,88.85"/>
    <path class="st2" d="M257.79,112.01"/>
    <path class="st6" d="M176.66,83.59s74.29-24.74,72.79,18.73c0,0,2.59-30.91-64.89-13.04l-7.9-5.68Z"/>
    <path class="st1" d="M171.44,87.68"/>
    <polygon class="st0" points="87.56 184.46 87.56 184.46 87.56 94.84 94.88 100.21 95.28 190.23 87.56 184.46"/>
    <polygon class="st3" points="171.82 88.85 163.71 82.2 101.02 82.2 108.18 88.85 171.82 88.85"/>
    <polyline class="st1" points="87.56 94.89 100.07 94.41 107.98 100.29 100.07 93.64 100.07 82.2 107.98 88.85"/>
    <polyline class="st6" points="123.55 142.54 130.86 142.54 138.83 149.19 122.75 149.37 122.75 142.54"/>
    <polygon class="st0" points="139.49 155.39 157.5 155.68 165.61 162.34 138.72 162.26 139.49 155.39"/>
    <polygon class="st8" points="147.7 120.12 139.59 113.89 139.59 108.17 147.7 108 147.7 120.12"/>
    <polygon class="st7" points="128.8 113.74 139.59 113.47 147.7 120.29 128.8 120.29 128.8 113.74"/>
    <polyline class="st5" points="175.63 184.62 176.66 83.41 184.5 89.2 184.56 190.65 175.63 184.62 183.91 190.65"/>
  </g>
  <polygon class="st8" points="95.28 100.91 87.56 94.84 100.07 94.41 107.98 100.29 95.28 100.91"/>
  <polygon class="st6" points="100.07 82.2 108.18 88.85 107.98 100.29 100.07 94.41 100.07 82.2"/>
  <path class="st1" d="M199.22,102.32v15.85s28.04-.42,25.56-9.36c-2.48-8.94-25.56-6.49-25.56-6.49Z"/>
  <path class="st3" d="M213.82,102.52c.43.23,25.33,7.1-.75,14.36,1.58-2.02,10.82-7.78.75-14.36Z"/>
</svg>